<mxfile host="app.diagrams.net" modified="2022-10-30T14:45:38.042Z" agent="5.0 (Windows NT 10.0; Win64; x64) AppleWebKit/537.36 (KHTML, like Gecko) Chrome/107.0.0.0 Safari/537.36" etag="VzW9c0MgcAN5nRiXDg21" version="20.5.1" type="github">
  <diagram id="yAoS6zfe3dLJvbsW8Aoi" name="Страница 1">
    <mxGraphModel dx="2500" dy="934" grid="1" gridSize="10" guides="1" tooltips="1" connect="1" arrows="1" fold="1" page="1" pageScale="1" pageWidth="827" pageHeight="1169" math="0" shadow="0">
      <root>
        <mxCell id="0" />
        <mxCell id="1" parent="0" />
        <mxCell id="S4XQK1YXp7nGLbOK0HS0-6" value="KeyValueStorage&lt;K, V&gt;" style="swimlane;fontStyle=3;align=center;verticalAlign=top;childLayout=stackLayout;horizontal=1;startSize=26;horizontalStack=0;resizeParent=1;resizeParentMax=0;resizeLast=0;collapsible=1;marginBottom=0;" vertex="1" parent="1">
          <mxGeometry x="330" y="160" width="160" height="132" as="geometry" />
        </mxCell>
        <mxCell id="S4XQK1YXp7nGLbOK0HS0-9" value="+ read(key: K): V&#xa;+ write(key: K, value: V)&#xa;+ exists(key: K): boolean&#xa;+ delete(key: K)&#xa;+ readKeys(): Iterator&lt;K&gt;&#xa;+ size(): int" style="text;strokeColor=none;fillColor=none;align=left;verticalAlign=top;spacingLeft=4;spacingRight=4;overflow=hidden;rotatable=0;points=[[0,0.5],[1,0.5]];portConstraint=eastwest;" vertex="1" parent="S4XQK1YXp7nGLbOK0HS0-6">
          <mxGeometry y="26" width="160" height="106" as="geometry" />
        </mxCell>
        <mxCell id="S4XQK1YXp7nGLbOK0HS0-15" value="KeyValueStorageImpl&lt;K, V&gt;" style="swimlane;fontStyle=1;align=center;verticalAlign=top;childLayout=stackLayout;horizontal=1;startSize=26;horizontalStack=0;resizeParent=1;resizeParentMax=0;resizeLast=0;collapsible=1;marginBottom=0;" vertex="1" parent="1">
          <mxGeometry x="590" y="160" width="180" height="122" as="geometry" />
        </mxCell>
        <mxCell id="S4XQK1YXp7nGLbOK0HS0-18" value="+ read(key: K): V&#xa;+ write(key: K, value: V)&#xa;+ exists(key: K): boolean&#xa;+ delete(key: K)&#xa;+ readKeys(): Iterator&lt;K&gt;&#xa;+ size(): int" style="text;strokeColor=none;fillColor=none;align=left;verticalAlign=top;spacingLeft=4;spacingRight=4;overflow=hidden;rotatable=0;points=[[0,0.5],[1,0.5]];portConstraint=eastwest;" vertex="1" parent="S4XQK1YXp7nGLbOK0HS0-15">
          <mxGeometry y="26" width="180" height="96" as="geometry" />
        </mxCell>
        <mxCell id="S4XQK1YXp7nGLbOK0HS0-23" value="Extends" style="endArrow=block;endSize=16;endFill=0;html=1;rounded=0;exitX=0.5;exitY=0;exitDx=0;exitDy=0;entryX=0.5;entryY=0;entryDx=0;entryDy=0;" edge="1" parent="1" source="S4XQK1YXp7nGLbOK0HS0-15" target="S4XQK1YXp7nGLbOK0HS0-6">
          <mxGeometry width="160" relative="1" as="geometry">
            <mxPoint x="550" y="120" as="sourcePoint" />
            <mxPoint x="710" y="120" as="targetPoint" />
            <Array as="points">
              <mxPoint x="680" y="120" />
              <mxPoint x="410" y="120" />
            </Array>
          </mxGeometry>
        </mxCell>
        <mxCell id="S4XQK1YXp7nGLbOK0HS0-24" value="KeyValueStorageFactories" style="swimlane;fontStyle=3;align=center;verticalAlign=top;childLayout=stackLayout;horizontal=1;startSize=26;horizontalStack=0;resizeParent=1;resizeParentMax=0;resizeLast=0;collapsible=1;marginBottom=0;" vertex="1" parent="1">
          <mxGeometry x="-420" y="160" width="440" height="84" as="geometry" />
        </mxCell>
        <mxCell id="S4XQK1YXp7nGLbOK0HS0-27" value="+ buildStringStorage(path: String): KeyValueStorage&lt;String, String&gt;&#xa;+ buildNumbersStorage(path: String): KeyValueStorage&lt;Integer, Double&gt;&#xa;+ buildStringStorage(path: String): KeyValueStorage&lt;StudentKey, Student&gt;" style="text;strokeColor=none;fillColor=none;align=left;verticalAlign=top;spacingLeft=4;spacingRight=4;overflow=hidden;rotatable=0;points=[[0,0.5],[1,0.5]];portConstraint=eastwest;" vertex="1" parent="S4XQK1YXp7nGLbOK0HS0-24">
          <mxGeometry y="26" width="440" height="58" as="geometry" />
        </mxCell>
        <mxCell id="S4XQK1YXp7nGLbOK0HS0-33" value="" style="endArrow=open;html=1;endSize=12;startArrow=diamondThin;startSize=14;startFill=0;edgeStyle=orthogonalEdgeStyle;align=left;verticalAlign=bottom;rounded=0;exitX=0.915;exitY=0.176;exitDx=0;exitDy=0;exitPerimeter=0;entryX=0.073;entryY=0.556;entryDx=0;entryDy=0;entryPerimeter=0;" edge="1" parent="1" source="S4XQK1YXp7nGLbOK0HS0-59" target="S4XQK1YXp7nGLbOK0HS0-56">
          <mxGeometry x="-1" y="3" relative="1" as="geometry">
            <mxPoint x="350" y="330" as="sourcePoint" />
            <mxPoint x="240" y="130" as="targetPoint" />
            <Array as="points">
              <mxPoint x="220" y="200" />
              <mxPoint x="220" y="220" />
            </Array>
          </mxGeometry>
        </mxCell>
        <mxCell id="S4XQK1YXp7nGLbOK0HS0-35" value="AbstractSingleFileStorageTest" style="swimlane;fontStyle=3;align=center;verticalAlign=top;childLayout=stackLayout;horizontal=1;startSize=26;horizontalStack=0;resizeParent=1;resizeParentMax=0;resizeLast=0;collapsible=1;marginBottom=0;" vertex="1" parent="1">
          <mxGeometry x="-420" y="330" width="440" height="174" as="geometry" />
        </mxCell>
        <mxCell id="S4XQK1YXp7nGLbOK0HS0-38" value="+ testReadWrite()&#xa;+ testPersistance()&#xa;+ testMissingKey()&#xa;+ testMultipleModifications()&#xa;+ testPersistAndCopy()&#xa;+ testNonEquality()&#xa;+ testIteratorWithConcurrentKeysModification()&#xa;+ testIteratorWithConcurrentValuesModification()&#xa;+ testDoNotWriteInClosedState()&#xa;+ testDoNotReadInClosedState()&#xa;" style="text;strokeColor=none;fillColor=none;align=left;verticalAlign=top;spacingLeft=4;spacingRight=4;overflow=hidden;rotatable=0;points=[[0,0.5],[1,0.5]];portConstraint=eastwest;" vertex="1" parent="S4XQK1YXp7nGLbOK0HS0-35">
          <mxGeometry y="26" width="440" height="148" as="geometry" />
        </mxCell>
        <mxCell id="S4XQK1YXp7nGLbOK0HS0-39" value="Extends" style="endArrow=block;endSize=16;endFill=0;html=1;rounded=0;exitX=0.5;exitY=0;exitDx=0;exitDy=0;entryX=0.501;entryY=0.991;entryDx=0;entryDy=0;entryPerimeter=0;" edge="1" parent="1" source="S4XQK1YXp7nGLbOK0HS0-35" target="S4XQK1YXp7nGLbOK0HS0-27">
          <mxGeometry width="160" relative="1" as="geometry">
            <mxPoint x="-100" y="300" as="sourcePoint" />
            <mxPoint x="60" y="300" as="targetPoint" />
          </mxGeometry>
        </mxCell>
        <mxCell id="S4XQK1YXp7nGLbOK0HS0-40" value="Student" style="swimlane;fontStyle=1;align=center;verticalAlign=top;childLayout=stackLayout;horizontal=1;startSize=26;horizontalStack=0;resizeParent=1;resizeParentMax=0;resizeLast=0;collapsible=1;marginBottom=0;" vertex="1" parent="1">
          <mxGeometry x="-710" y="230" width="160" height="90" as="geometry" />
        </mxCell>
        <mxCell id="S4XQK1YXp7nGLbOK0HS0-41" value="+ hometown: String&#xa;+ birthdate: Date&#xa;+ hasDormitory: boolean&#xa;+ averageScore: double&#xa;" style="text;strokeColor=none;fillColor=none;align=left;verticalAlign=top;spacingLeft=4;spacingRight=4;overflow=hidden;rotatable=0;points=[[0,0.5],[1,0.5]];portConstraint=eastwest;" vertex="1" parent="S4XQK1YXp7nGLbOK0HS0-40">
          <mxGeometry y="26" width="160" height="64" as="geometry" />
        </mxCell>
        <mxCell id="S4XQK1YXp7nGLbOK0HS0-44" value="StudentKey" style="swimlane;fontStyle=1;align=center;verticalAlign=top;childLayout=stackLayout;horizontal=1;startSize=26;horizontalStack=0;resizeParent=1;resizeParentMax=0;resizeLast=0;collapsible=1;marginBottom=0;" vertex="1" parent="1">
          <mxGeometry x="-710" y="530" width="160" height="66" as="geometry" />
        </mxCell>
        <mxCell id="S4XQK1YXp7nGLbOK0HS0-45" value="+ groupId: int&#xa;+ name: String&#xa;" style="text;strokeColor=none;fillColor=none;align=left;verticalAlign=top;spacingLeft=4;spacingRight=4;overflow=hidden;rotatable=0;points=[[0,0.5],[1,0.5]];portConstraint=eastwest;" vertex="1" parent="S4XQK1YXp7nGLbOK0HS0-44">
          <mxGeometry y="26" width="160" height="40" as="geometry" />
        </mxCell>
        <mxCell id="S4XQK1YXp7nGLbOK0HS0-46" value="1" style="endArrow=open;html=1;endSize=12;startArrow=diamondThin;startSize=14;startFill=0;edgeStyle=orthogonalEdgeStyle;align=left;verticalAlign=bottom;rounded=0;exitX=0;exitY=0.5;exitDx=0;exitDy=0;" edge="1" parent="1" source="S4XQK1YXp7nGLbOK0HS0-38" target="S4XQK1YXp7nGLbOK0HS0-44">
          <mxGeometry x="-1" y="3" relative="1" as="geometry">
            <mxPoint x="-430" y="490" as="sourcePoint" />
            <mxPoint x="-430" y="434" as="targetPoint" />
            <Array as="points">
              <mxPoint x="-630" y="430" />
            </Array>
          </mxGeometry>
        </mxCell>
        <mxCell id="S4XQK1YXp7nGLbOK0HS0-47" value="1" style="endArrow=open;html=1;endSize=12;startArrow=diamondThin;startSize=14;startFill=0;edgeStyle=orthogonalEdgeStyle;align=left;verticalAlign=bottom;rounded=0;exitX=0;exitY=0.365;exitDx=0;exitDy=0;exitPerimeter=0;" edge="1" parent="1" source="S4XQK1YXp7nGLbOK0HS0-38" target="S4XQK1YXp7nGLbOK0HS0-41">
          <mxGeometry x="-1" y="3" relative="1" as="geometry">
            <mxPoint x="-710" y="370" as="sourcePoint" />
            <mxPoint x="-630" y="330" as="targetPoint" />
          </mxGeometry>
        </mxCell>
        <mxCell id="S4XQK1YXp7nGLbOK0HS0-48" value="KeyValueStorageTestImpl" style="swimlane;fontStyle=1;align=center;verticalAlign=top;childLayout=stackLayout;horizontal=1;startSize=26;horizontalStack=0;resizeParent=1;resizeParentMax=0;resizeLast=0;collapsible=1;marginBottom=0;" vertex="1" parent="1">
          <mxGeometry x="-490" y="690" width="510" height="84" as="geometry">
            <mxRectangle x="460" y="480" width="190" height="30" as="alternateBounds" />
          </mxGeometry>
        </mxCell>
        <mxCell id="S4XQK1YXp7nGLbOK0HS0-51" value="+ buildStringStorage(path: String): KeyValueStorageImpl&lt;String, String&gt;&#xa;+ buildNumbersStorage(path: String): KeyValueStorageImpl&lt;Integer, Double&gt;&#xa;+ buildStringStorage(path: String): KeyValueStorageImpl&lt;StudentKey, Student&gt;" style="text;strokeColor=none;fillColor=none;align=left;verticalAlign=top;spacingLeft=4;spacingRight=4;overflow=hidden;rotatable=0;points=[[0,0.5],[1,0.5]];portConstraint=eastwest;" vertex="1" parent="S4XQK1YXp7nGLbOK0HS0-48">
          <mxGeometry y="26" width="510" height="58" as="geometry" />
        </mxCell>
        <mxCell id="S4XQK1YXp7nGLbOK0HS0-52" value="Extends" style="endArrow=block;endSize=16;endFill=0;html=1;rounded=0;exitX=0.489;exitY=0.005;exitDx=0;exitDy=0;entryX=0.751;entryY=1.003;entryDx=0;entryDy=0;entryPerimeter=0;exitPerimeter=0;" edge="1" parent="1" source="S4XQK1YXp7nGLbOK0HS0-48" target="S4XQK1YXp7nGLbOK0HS0-38">
          <mxGeometry width="160" relative="1" as="geometry">
            <mxPoint x="50" y="290" as="sourcePoint" />
            <mxPoint x="210" y="290" as="targetPoint" />
            <Array as="points">
              <mxPoint x="-240" y="590" />
              <mxPoint x="-90" y="590" />
            </Array>
          </mxGeometry>
        </mxCell>
        <mxCell id="S4XQK1YXp7nGLbOK0HS0-54" value="1" style="endArrow=open;html=1;endSize=12;startArrow=diamondThin;startSize=14;startFill=0;edgeStyle=orthogonalEdgeStyle;align=left;verticalAlign=bottom;rounded=0;exitX=0.75;exitY=0;exitDx=0;exitDy=0;entryX=1;entryY=0.5;entryDx=0;entryDy=0;" edge="1" parent="1" source="S4XQK1YXp7nGLbOK0HS0-48" target="S4XQK1YXp7nGLbOK0HS0-18">
          <mxGeometry x="-0.9372" y="-17" relative="1" as="geometry">
            <mxPoint x="570" y="320" as="sourcePoint" />
            <mxPoint x="730" y="320" as="targetPoint" />
            <Array as="points">
              <mxPoint x="-107" y="620" />
              <mxPoint x="800" y="620" />
              <mxPoint x="800" y="234" />
            </Array>
            <mxPoint as="offset" />
          </mxGeometry>
        </mxCell>
        <mxCell id="S4XQK1YXp7nGLbOK0HS0-56" value="" style="shape=folder;fontStyle=1;spacingTop=10;tabWidth=40;tabHeight=14;tabPosition=left;html=1;fillColor=none;" vertex="1" parent="1">
          <mxGeometry x="290" y="70" width="550" height="270" as="geometry" />
        </mxCell>
        <mxCell id="S4XQK1YXp7nGLbOK0HS0-58" value="&lt;font style=&quot;font-size: 8px;&quot;&gt;Storage&lt;/font&gt;" style="text;html=1;resizable=0;autosize=1;align=center;verticalAlign=middle;points=[];fillColor=none;strokeColor=none;rounded=0;" vertex="1" parent="1">
          <mxGeometry x="280" y="60" width="50" height="30" as="geometry" />
        </mxCell>
        <mxCell id="S4XQK1YXp7nGLbOK0HS0-59" value="" style="shape=folder;fontStyle=1;spacingTop=10;tabWidth=40;tabHeight=14;tabPosition=left;html=1;fillColor=none;" vertex="1" parent="1">
          <mxGeometry x="-730" y="70" width="820" height="740" as="geometry" />
        </mxCell>
        <mxCell id="S4XQK1YXp7nGLbOK0HS0-60" value="&lt;font style=&quot;font-size: 10px;&quot;&gt;TestPackage&lt;/font&gt;" style="text;html=1;resizable=0;autosize=1;align=center;verticalAlign=middle;points=[];fillColor=none;strokeColor=none;rounded=0;" vertex="1" parent="1">
          <mxGeometry x="-740" y="60" width="80" height="30" as="geometry" />
        </mxCell>
        <mxCell id="S4XQK1YXp7nGLbOK0HS0-63" value="Use" style="endArrow=open;endSize=12;dashed=1;html=1;rounded=0;fontSize=8;exitX=0.999;exitY=0.278;exitDx=0;exitDy=0;exitPerimeter=0;entryX=0;entryY=0;entryDx=0;entryDy=206;entryPerimeter=0;" edge="1" parent="1" source="S4XQK1YXp7nGLbOK0HS0-59" target="S4XQK1YXp7nGLbOK0HS0-56">
          <mxGeometry width="160" relative="1" as="geometry">
            <mxPoint x="170" y="390" as="sourcePoint" />
            <mxPoint x="330" y="390" as="targetPoint" />
          </mxGeometry>
        </mxCell>
      </root>
    </mxGraphModel>
  </diagram>
</mxfile>
